# xmcd
#
# Track frame offsets:
#	150
#	13197
#	26702
#	38252
#	50020
#	62490
#	73115
#	87212
#	102267
#	112935
#
# Disc length: 1733 seconds
#
# Revision: 0
# Processed by: cddbd v1.4PL0 Copyright (c) Steve Scherf et al.
# Submitted via: dBpowerAMP V4.0
#
DISCID=7906c30a
DTITLE=Kenny Rodgers and the First Edition - Classic Country
DYEAR=1900
DGENRE=Country
TTITLE0=Ruby Don't Take Your Love To Town
TTITLE1=Shine On Ruby Mountain
TTITLE2=Me and Bobby McGee
TTITLE3=Elvira
TTITLE4=Reuben James
TTITLE5=Ticket To Nowhere
TTITLE6=Sunshine
TTITLE7=Conditions (Just Dropped In)
TTITLE8=Goodtime Liberator
TTITLE9=Something's Burning
EXTD=Kenny Rogers and The First edition
EXTT0=
EXTT1=
EXTT2=
EXTT3=
EXTT4=
EXTT5=
EXTT6=
EXTT7=
EXTT8=
EXTT9=
PLAYORDER=
